# xmcd CD database file
#
# Track frame offsets:
#	150
#	11420
#	34712
#	48877
#	62702
#	81147
#	107852
#	126357
#	145800
#	198750
#
# Disc length: 2749 seconds
#
# Revision: 6
# Processed by: cddbd v1.5.1PL2 Copyright (c) Steve Scherf et al.
# Submitted via: CDex 1.51
#
DISCID=7f0abb0a
DTITLE=Blood, Sweat and Tears - Blood, Sweat and Tears
DYEAR=1968
DGENRE=Jazz
TTITLE0=Variations on a Theme by Erik Satie (1st and 2nd Movements) (adapted from "Trois Gymnopedies")
TTITLE1=Smiling Phases
TTITLE2=Sometimes in Winter
TTITLE3=More and More
TTITLE4=And When I Die
TTITLE5=God Bless the Child
TTITLE6=Spinning Wheel
TTITLE7=You've Made Me So Very Happy
TTITLE8=Blues-Part II
TTITLE9=Variations On A Theme By Erik Satie (1st Movement) (adapted from "Trois Gymnopedies")
EXTD=YEAR: 1968
EXTT0=
EXTT1=
EXTT2=
EXTT3=
EXTT4=
EXTT5=
EXTT6=
EXTT7=
EXTT8=
EXTT9=
PLAYORDER=
